<svg width="100" height="113" viewBox="0 0 100 113" fill="none" xmlns="http://www.w3.org/2000/svg">
<path d="M42.9142 26.5103C48.1177 28.7318 49.2545 35.5527 51.6935 40.4395C54.5215 46.1057 56.0861 49.2159 58.0309 52.6287C59.363 54.9664 59.9873 57.4102 59.8937 58.969C59.8542 59.627 58.8351 59.7557 58.0513 59.4691C53.9347 57.9638 49.4885 54.1173 46.1546 53.6143C42.5874 53.0761 47.5115 60.3289 48.6755 63.9377C49.2369 65.6783 49.8511 67.5465 49.4651 69.3977C49.1674 70.8252 46.1604 70.4826 44.4993 70.8687C41.2367 71.6269 46.9266 77.2908 48.383 82.0548C49.0971 84.3907 48.6813 88.5325 47.1372 90.6206C44.116 94.706 38.3579 92.5156 36.3166 91.9336C31.3673 90.5226 26.6776 86.8714 21.3083 83.558C16.8119 80.7833 13.0262 76.741 8.53709 71.2898C4.6719 66.5962 3.06539 61.5279 2.09153 58.8052C1.15344 56.1825 1.49787 45.2327 1.98333 30.1308C2.29991 20.2824 4.61535 16.4969 6.75315 12.7887C9.70244 7.67285 14.3363 5.18504 20.4865 3.41865C26.973 1.55566 34.2344 2.04999 39.206 1.56455C44.1681 1.08003 48.8568 3.40695 55.3725 5.74068C62.6341 8.34155 72.2175 14.6837 80.6955 20.8222C87.209 25.5382 91.168 33.7981 94.0984 38.7843C95.2463 40.7375 96.2449 46.2622 97.4147 54.9186C98.4977 62.9329 97.6194 68.5174 94.9143 75.1998C89.0417 89.7068 81.0611 99.9028 77.9494 103.31C73.5199 108.16 67.047 109.261 60.7886 110.837C55.0995 112.27 46.3651 111.039 38.6708 106.667C33.1514 103.531 28.0462 100.137 24.5164 95.8437C19.7493 90.0458 16.5121 80.0632 15.5412 69.5585C14.7734 61.251 15.9214 54.515 17.0882 51.108C19.9675 42.7012 31.2865 30.1717 35.413 25.747C38.0085 22.9638 42.0369 22.7202 45.8358 22.0359C52.2749 20.876 57.8057 24.4514 62.1222 27.5806C65.4529 29.9952 69.527 32.4528 72.2613 35.1813C76.1336 39.0454 78.4875 48.1865 81.1371 56.1323C82.6651 60.7144 82.6052 66.751 83.0906 73.179C83.6153 80.126 82.611 85.0991 81.1547 86.266C79.1192 87.4329 76.9609 88.6085 75.1127 89.7754C74.2295 90.3632 73.4574 90.9422 71.4922 91.5388" stroke="white" stroke-width="3" stroke-linecap="round"/>
</svg>
